<?xml version="1.0" encoding="UTF-8"?>
<svg width="18px" height="18px" viewBox="0 0 18 18" version="1.1" xmlns="http://www.w3.org/2000/svg" xmlns:xlink="http://www.w3.org/1999/xlink">
    <!-- Generator: Sketch 50.2 (55047) - http://www.bohemiancoding.com/sketch -->
    <title>ic_save</title>
    <desc>Created with Sketch.</desc>
    <defs>
        <path d="M14,0 L2,0 C0.89,0 0,0.9 0,2 L0,16 C0,17.1 0.89,18 2,18 L16,18 C17.1,18 18,17.1 18,16 L18,4 L14,0 Z M16,16 L2,16 L2,2 L13.17,2 L16,4.83 L16,16 Z M9,9 C7.34,9 6,10.34 6,12 C6,13.66 7.34,15 9,15 C10.66,15 12,13.66 12,12 C12,10.34 10.66,9 9,9 Z M3,3 L12,3 L12,7 L3,7 L3,3 Z" id="path-1"></path>
    </defs>
    <g id="Page-1" stroke="none" stroke-width="1" fill="none" fill-rule="evenodd">
        <g id="Home" transform="translate(-323.000000, -99.000000)">
            <g id="Group">
                <g id="List-/-Single-Line-/-Image-1:1" transform="translate(16.000000, 80.000000)">
                    <g id="ICON" transform="translate(307.000000, 19.000000)">
                        <g id="ic_save">
                            <mask id="mask-2" fill="white">
                                <use xlink:href="#path-1"></use>
                            </mask>
                            <use id="icon/content/save_24px" fill="#9B9B9B" fill-rule="nonzero" xlink:href="#path-1"></use>
                        </g>
                    </g>
                </g>
            </g>
        </g>
    </g>
</svg>